<svg xmlns="http://www.w3.org/2000/svg" xmlns:xlink="http://www.w3.org/1999/xlink" width="1000" zoomAndPan="magnify" viewBox="0 0 750 749.999995" height="1000" preserveAspectRatio="xMidYMid meet" version="1.2"><defs><clipPath id="fdcaf7232a"><path d="M 591 0 L 749.792969 0 L 749.792969 11 L 591 11 Z M 591 0 "/></clipPath><clipPath id="739e97eeee"><path d="M 738.832031 0 L 749.792969 0 L 749.792969 157.945312 L 738.832031 157.945312 Z M 738.832031 0 "/></clipPath><clipPath id="bbb2ee7460"><path d="M 738.832031 592 L 749.792969 592 L 749.792969 749.984375 L 738.832031 749.984375 Z M 738.832031 592 "/></clipPath><clipPath id="1d7fded13b"><path d="M 591 739 L 749.792969 739 L 749.792969 749.984375 L 591 749.984375 Z M 591 739 "/></clipPath><clipPath id="ca257f3c5c"><path d="M 0.160156 739 L 158.105469 739 L 158.105469 749.984375 L 0.160156 749.984375 Z M 0.160156 739 "/></clipPath><clipPath id="c5e27f2e27"><path d="M 0.160156 592 L 11.328125 592 L 11.328125 749.984375 L 0.160156 749.984375 Z M 0.160156 592 "/></clipPath></defs><g id="06e3dc4ff0"><path style=" stroke:none;fill-rule:nonzero;fill:#232323;fill-opacity:1;" d="M 0.160156 -0.0078125 L 0.160156 157.859375 L 11.046875 157.859375 L 11.046875 -0.0078125 L 0.160156 -0.0078125 "/><path style=" stroke:none;fill-rule:nonzero;fill:#232323;fill-opacity:1;" d="M 0.160156 -0.0078125 L 0.160156 10.882812 L 158.023438 10.882812 L 158.023438 -0.0078125 L 0.160156 -0.0078125 "/><g clip-rule="nonzero" clip-path="url(#fdcaf7232a)"><path style=" stroke:none;fill-rule:nonzero;fill:#232323;fill-opacity:1;" d="M 749.792969 0.0234375 L 591.929688 0.0234375 L 591.929688 10.914062 L 749.792969 10.914062 L 749.792969 0.0234375 "/></g><g clip-rule="nonzero" clip-path="url(#739e97eeee)"><path style=" stroke:none;fill-rule:nonzero;fill:#232323;fill-opacity:1;" d="M 749.792969 0.0234375 L 738.914062 0.0234375 L 738.914062 157.890625 L 749.792969 157.890625 L 749.792969 0.0234375 "/></g><g clip-rule="nonzero" clip-path="url(#bbb2ee7460)"><path style=" stroke:none;fill-rule:nonzero;fill:#232323;fill-opacity:1;" d="M 749.792969 749.984375 L 749.792969 592.121094 L 738.914062 592.121094 L 738.914062 749.984375 L 749.792969 749.984375 "/></g><g clip-rule="nonzero" clip-path="url(#1d7fded13b)"><path style=" stroke:none;fill-rule:nonzero;fill:#232323;fill-opacity:1;" d="M 749.792969 749.984375 L 749.792969 739.097656 L 591.9375 739.097656 L 591.9375 749.984375 L 749.792969 749.984375 "/></g><g clip-rule="nonzero" clip-path="url(#ca257f3c5c)"><path style=" stroke:none;fill-rule:nonzero;fill:#232323;fill-opacity:1;" d="M 0.160156 749.953125 L 158.023438 749.953125 L 158.023438 739.066406 L 0.160156 739.066406 L 0.160156 749.953125 "/></g><g clip-rule="nonzero" clip-path="url(#c5e27f2e27)"><path style=" stroke:none;fill-rule:nonzero;fill:#232323;fill-opacity:1;" d="M 0.160156 749.953125 L 11.046875 749.953125 L 11.046875 592.089844 L 0.160156 592.089844 L 0.160156 749.953125 "/></g></g></svg>