<svg xmlns="http://www.w3.org/2000/svg" xmlns:xlink="http://www.w3.org/1999/xlink" width="500" zoomAndPan="magnify" viewBox="0 0 375 374.999991" height="500" preserveAspectRatio="xMidYMid meet" version="1.2"><defs><clipPath id="1917968d4b"><path d="M 153 184 L 159 184 L 159 189.988281 L 153 189.988281 Z M 153 184 "/></clipPath><clipPath id="648ff88e2e"><path d="M 137 184 L 143 184 L 143 189.988281 L 137 189.988281 Z M 137 184 "/></clipPath><clipPath id="d067e80117"><path d="M 145 150.238281 L 151 150.238281 L 151 156 L 145 156 Z M 145 150.238281 "/></clipPath></defs><g id="ed3ec4a3a0"><g style="fill:#92d400;fill-opacity:1;"><g transform="translate(26.619902, 218.606988)"><path style="stroke:none" d="M 23.84375 -41.34375 L 23.84375 -39.75 L 53.265625 -39.75 L 53.265625 -22.078125 L 23.84375 -22.078125 L 23.84375 -20.484375 L 53.265625 -20.484375 L 53.265625 0 L 0.890625 0 L 0.890625 -61.828125 L 53.265625 -61.828125 L 53.265625 -41.34375 Z M 23.84375 -41.34375 "/></g></g><g style="fill:#92d400;fill-opacity:1;"><g transform="translate(80.768163, 218.606988)"><path style="stroke:none" d="M 27.03125 -50.96875 C 30.5625 -50.96875 33.898438 -50.300781 37.046875 -48.96875 C 40.203125 -47.644531 42.972656 -45.820312 45.359375 -43.5 C 47.742188 -41.175781 49.640625 -38.453125 51.046875 -35.328125 C 52.460938 -32.210938 53.203125 -28.882812 53.265625 -25.34375 L 31.4375 -25.34375 C 31.320312 -26.46875 30.851562 -27.394531 30.03125 -28.125 C 29.207031 -28.863281 28.207031 -29.234375 27.03125 -29.234375 C 25.789062 -29.234375 24.726562 -28.789062 23.84375 -27.90625 C 22.96875 -27.03125 22.53125 -25.972656 22.53125 -24.734375 C 22.53125 -23.492188 22.96875 -22.429688 23.84375 -21.546875 C 24.726562 -20.671875 25.789062 -20.234375 27.03125 -20.234375 C 28.207031 -20.234375 29.207031 -20.597656 30.03125 -21.328125 C 30.851562 -22.066406 31.320312 -22.992188 31.4375 -24.109375 L 53.265625 -24.109375 C 53.203125 -20.578125 52.460938 -17.25 51.046875 -14.125 C 49.640625 -11.007812 47.742188 -8.257812 45.359375 -5.875 C 42.972656 -3.488281 40.203125 -1.617188 37.046875 -0.265625 C 33.898438 1.085938 30.5625 1.765625 27.03125 1.765625 C 23.4375 1.765625 20.046875 1.070312 16.859375 -0.3125 C 13.679688 -1.695312 10.882812 -3.609375 8.46875 -6.046875 C 6.0625 -8.492188 4.179688 -11.320312 2.828125 -14.53125 C 1.472656 -17.738281 0.796875 -21.140625 0.796875 -24.734375 C 0.796875 -28.378906 1.472656 -31.773438 2.828125 -34.921875 C 4.179688 -38.078125 6.0625 -40.863281 8.46875 -43.28125 C 10.882812 -45.695312 13.679688 -47.582031 16.859375 -48.9375 C 20.046875 -50.289062 23.4375 -50.96875 27.03125 -50.96875 Z M 27.03125 -50.96875 "/></g></g><g style="fill:#496a00;fill-opacity:1;"><g transform="translate(123.70098, 194.210443)"><path style="stroke:none" d="M 23.976562 4.207031 C 20.378906 4.207031 16.980469 3.523438 13.78125 2.164062 C 10.601562 0.808594 7.800781 -1.078125 5.382812 -3.496094 C 2.964844 -5.914062 1.078125 -8.714844 -0.273438 -11.894531 C -1.636719 -15.09375 -2.320312 -18.492188 -2.320312 -22.089844 C -2.320312 -25.746094 -1.636719 -29.160156 -0.269531 -32.335938 C 1.082031 -35.484375 2.96875 -38.269531 5.382812 -40.683594 C 7.800781 -43.101562 10.601562 -44.988281 13.78125 -46.34375 C 16.980469 -47.707031 20.378906 -48.386719 23.976562 -48.386719 C 27.632812 -48.386719 31.046875 -47.707031 34.222656 -46.339844 C 37.371094 -44.984375 40.15625 -43.101562 42.570312 -40.683594 C 44.988281 -38.269531 46.871094 -35.484375 48.226562 -32.335938 C 49.59375 -29.160156 50.273438 -25.746094 50.273438 -22.089844 C 50.273438 -18.492188 49.59375 -15.09375 48.230469 -11.894531 C 46.875 -8.714844 44.988281 -5.914062 42.570312 -3.496094 C 40.15625 -1.082031 37.371094 0.804688 34.222656 2.160156 C 31.046875 3.523438 27.632812 4.207031 23.976562 4.207031 Z M 23.976562 -1.691406 C 26.824219 -1.691406 29.460938 -2.214844 31.894531 -3.257812 C 34.351562 -4.316406 36.519531 -5.785156 38.402344 -7.667969 C 40.28125 -9.546875 41.75 -11.726562 42.804688 -14.207031 C 43.855469 -16.667969 44.378906 -19.296875 44.378906 -22.089844 C 44.378906 -24.9375 43.855469 -27.574219 42.808594 -30.007812 C 41.753906 -32.464844 40.285156 -34.632812 38.402344 -36.515625 C 36.519531 -38.398438 34.351562 -39.867188 31.894531 -40.921875 C 29.460938 -41.96875 26.824219 -42.492188 23.976562 -42.492188 C 21.183594 -42.492188 18.554688 -41.96875 16.09375 -40.917969 C 13.613281 -39.863281 11.433594 -38.394531 9.554688 -36.515625 C 7.671875 -34.632812 6.203125 -32.464844 5.144531 -30.007812 C 4.101562 -27.574219 3.578125 -24.9375 3.578125 -22.089844 C 3.578125 -19.296875 4.101562 -16.667969 5.148438 -14.207031 C 6.207031 -11.726562 7.671875 -9.546875 9.554688 -7.667969 C 11.433594 -5.785156 13.613281 -4.320312 16.09375 -3.261719 C 18.554688 -2.214844 21.183594 -1.691406 23.976562 -1.691406 Z M 23.976562 -23.152344 C 23.691406 -23.152344 23.441406 -23.046875 23.230469 -22.835938 C 23.023438 -22.625 22.917969 -22.378906 22.917969 -22.089844 C 22.917969 -21.804688 23.023438 -21.554688 23.230469 -21.34375 C 23.441406 -21.136719 23.691406 -21.03125 23.976562 -21.03125 C 24.265625 -21.03125 24.511719 -21.136719 24.722656 -21.34375 C 24.933594 -21.554688 25.039062 -21.804688 25.039062 -22.089844 C 25.039062 -22.378906 24.933594 -22.625 24.722656 -22.835938 C 24.511719 -23.046875 24.265625 -23.152344 23.976562 -23.152344 Z M 23.976562 -29.046875 C 25.890625 -29.046875 27.53125 -28.367188 28.890625 -27.003906 C 30.253906 -25.644531 30.933594 -24.003906 30.933594 -22.089844 C 30.933594 -20.175781 30.253906 -18.539062 28.890625 -17.175781 C 27.53125 -15.8125 25.890625 -15.132812 23.976562 -15.132812 C 22.0625 -15.132812 20.425781 -15.8125 19.0625 -17.175781 C 17.699219 -18.539062 17.019531 -20.175781 17.019531 -22.089844 C 17.019531 -24.003906 17.699219 -25.644531 19.0625 -27.003906 C 20.425781 -28.367188 22.0625 -29.046875 23.976562 -29.046875 Z M 23.976562 -29.046875 "/></g></g><g style="fill:#92d400;fill-opacity:1;"><g transform="translate(123.70098, 194.210443)"><path style="stroke:none" d="M 23.96875 1.25 C 20.78125 1.25 17.769531 0.648438 14.9375 -0.546875 C 12.101562 -1.753906 9.613281 -3.429688 7.46875 -5.578125 C 5.320312 -7.722656 3.644531 -10.210938 2.4375 -13.046875 C 1.226562 -15.878906 0.625 -18.894531 0.625 -22.09375 C 0.625 -25.34375 1.226562 -28.367188 2.4375 -31.171875 C 3.644531 -33.972656 5.320312 -36.445312 7.46875 -38.59375 C 9.613281 -40.738281 12.101562 -42.414062 14.9375 -43.625 C 17.769531 -44.832031 20.78125 -45.4375 23.96875 -45.4375 C 27.21875 -45.4375 30.242188 -44.832031 33.046875 -43.625 C 35.859375 -42.414062 38.335938 -40.738281 40.484375 -38.59375 C 42.628906 -36.445312 44.304688 -33.972656 45.515625 -31.171875 C 46.722656 -28.367188 47.328125 -25.34375 47.328125 -22.09375 C 47.328125 -18.894531 46.722656 -15.878906 45.515625 -13.046875 C 44.304688 -10.210938 42.628906 -7.722656 40.484375 -5.578125 C 38.335938 -3.429688 35.859375 -1.753906 33.046875 -0.546875 C 30.242188 0.648438 27.21875 1.25 23.96875 1.25 Z M 23.96875 -26.09375 C 22.875 -26.09375 21.929688 -25.695312 21.140625 -24.90625 C 20.359375 -24.125 19.96875 -23.1875 19.96875 -22.09375 C 19.96875 -20.988281 20.359375 -20.039062 21.140625 -19.25 C 21.929688 -18.46875 22.875 -18.078125 23.96875 -18.078125 C 25.070312 -18.078125 26.015625 -18.46875 26.796875 -19.25 C 27.585938 -20.039062 27.984375 -20.988281 27.984375 -22.09375 C 27.984375 -23.1875 27.585938 -24.125 26.796875 -24.90625 C 26.015625 -25.695312 25.070312 -26.09375 23.96875 -26.09375 Z M 23.96875 -26.09375 "/></g></g><g style="fill:#92d400;fill-opacity:1;"><g transform="translate(169.218091, 218.606988)"><path style="stroke:none" d="M 0.890625 -61.921875 L 22.609375 -61.921875 L 22.609375 0 L 0.890625 0 Z M 0.890625 -61.921875 "/></g></g><g style="fill:#92d400;fill-opacity:1;"><g transform="translate(192.714729, 218.606988)"><path style="stroke:none" d="M 0.890625 -61.921875 L 22.609375 -61.921875 L 22.609375 0 L 0.890625 0 Z M 0.890625 -61.921875 "/></g></g><g style="fill:#92d400;fill-opacity:1;"><g transform="translate(216.211367, 218.606988)"><path style="stroke:none" d="M 28.96875 -22.34375 C 30.269531 -23.050781 31.035156 -24.035156 31.265625 -25.296875 C 31.503906 -26.566406 31.222656 -27.71875 30.421875 -28.75 C 29.628906 -29.78125 28.320312 -30.296875 26.5 -30.296875 C 24.96875 -30.359375 23.800781 -29.929688 23 -29.015625 C 22.207031 -28.097656 21.796875 -27.035156 21.765625 -25.828125 C 21.742188 -24.628906 22.097656 -23.554688 22.828125 -22.609375 C 23.566406 -21.671875 24.734375 -21.203125 26.328125 -21.203125 L 51.3125 -21.203125 L 51.3125 0 L 26.328125 0 C 22.785156 0 19.484375 -0.660156 16.421875 -1.984375 C 13.367188 -3.304688 10.660156 -5.144531 8.296875 -7.5 C 5.941406 -9.863281 4.101562 -12.578125 2.78125 -15.640625 C 1.457031 -18.703125 0.796875 -22 0.796875 -25.53125 C 0.796875 -30.175781 1.835938 -34.410156 3.921875 -38.234375 C 6.015625 -42.066406 8.988281 -45.144531 12.84375 -47.46875 C 16.707031 -49.800781 21.289062 -50.992188 26.59375 -51.046875 C 29.351562 -51.046875 32.128906 -50.78125 34.921875 -50.25 C 37.722656 -49.726562 40.359375 -48.726562 42.828125 -47.25 C 45.304688 -45.78125 47.367188 -43.601562 49.015625 -40.71875 C 49.722656 -39.476562 50.238281 -38.003906 50.5625 -36.296875 C 50.882812 -34.585938 51 -32.835938 50.90625 -31.046875 C 50.820312 -29.253906 50.457031 -27.578125 49.8125 -26.015625 C 49.164062 -24.453125 48.164062 -23.226562 46.8125 -22.34375 Z M 28.96875 -22.34375 "/></g></g><g style="fill:#92d400;fill-opacity:1;"><g transform="translate(268.327967, 218.606988)"><path style="stroke:none" d="M 27.03125 -50.96875 C 30.5625 -50.96875 33.898438 -50.300781 37.046875 -48.96875 C 40.203125 -47.644531 42.972656 -45.820312 45.359375 -43.5 C 47.742188 -41.175781 49.640625 -38.453125 51.046875 -35.328125 C 52.460938 -32.210938 53.203125 -28.882812 53.265625 -25.34375 L 31.4375 -25.34375 C 31.320312 -26.46875 30.851562 -27.394531 30.03125 -28.125 C 29.207031 -28.863281 28.207031 -29.234375 27.03125 -29.234375 C 25.789062 -29.234375 24.726562 -28.789062 23.84375 -27.90625 C 22.96875 -27.03125 22.53125 -25.972656 22.53125 -24.734375 C 22.53125 -23.492188 22.96875 -22.429688 23.84375 -21.546875 C 24.726562 -20.671875 25.789062 -20.234375 27.03125 -20.234375 C 28.207031 -20.234375 29.207031 -20.597656 30.03125 -21.328125 C 30.851562 -22.066406 31.320312 -22.992188 31.4375 -24.109375 L 53.265625 -24.109375 C 53.203125 -20.578125 52.460938 -17.25 51.046875 -14.125 C 49.640625 -11.007812 47.742188 -8.257812 45.359375 -5.875 C 42.972656 -3.488281 40.203125 -1.617188 37.046875 -0.265625 C 33.898438 1.085938 30.5625 1.765625 27.03125 1.765625 C 23.4375 1.765625 20.046875 1.070312 16.859375 -0.3125 C 13.679688 -1.695312 10.882812 -3.609375 8.46875 -6.046875 C 6.0625 -8.492188 4.179688 -11.320312 2.828125 -14.53125 C 1.472656 -17.738281 0.796875 -21.140625 0.796875 -24.734375 C 0.796875 -28.378906 1.472656 -31.773438 2.828125 -34.921875 C 4.179688 -38.078125 6.0625 -40.863281 8.46875 -43.28125 C 10.882812 -45.695312 13.679688 -47.582031 16.859375 -48.9375 C 20.046875 -50.289062 23.4375 -50.96875 27.03125 -50.96875 Z M 27.03125 -50.96875 "/></g></g><g style="fill:#92d400;fill-opacity:1;"><g transform="translate(322.387903, 218.606988)"><path style="stroke:none" d="M 24.03125 0 C 19.488281 0 15.46875 -0.835938 11.96875 -2.515625 C 8.46875 -4.191406 5.726562 -6.707031 3.75 -10.0625 C 1.78125 -13.425781 0.796875 -17.640625 0.796875 -22.703125 L 0.796875 -61.921875 L 22.53125 -61.921875 L 22.53125 -49.546875 L 37.625 -49.546875 L 37.625 -29.0625 L 22.53125 -29.0625 L 22.53125 -21.734375 C 22.53125 -20.960938 22.910156 -20.578125 23.671875 -20.578125 L 37.625 -20.578125 L 37.625 0 Z M 24.03125 0 "/></g></g><g style="fill:#92d400;fill-opacity:1;"><g transform="translate(39.734836, 251.548845)"><path style="stroke:none" d="M 4.375 0.171875 C 3.945312 0.171875 3.507812 0.113281 3.0625 0 C 2.613281 -0.101562 2.203125 -0.269531 1.828125 -0.5 C 1.453125 -0.738281 1.132812 -1.054688 0.875 -1.453125 C 0.625 -1.859375 0.46875 -2.347656 0.40625 -2.921875 L 2.171875 -2.921875 C 2.273438 -2.503906 2.441406 -2.175781 2.671875 -1.9375 C 2.898438 -1.695312 3.164062 -1.523438 3.46875 -1.421875 C 3.769531 -1.328125 4.078125 -1.28125 4.390625 -1.28125 C 4.859375 -1.28125 5.25 -1.378906 5.5625 -1.578125 C 5.875 -1.773438 6.03125 -2.09375 6.03125 -2.53125 C 6.03125 -2.84375 5.925781 -3.082031 5.71875 -3.25 C 5.519531 -3.425781 5.253906 -3.5625 4.921875 -3.65625 C 4.597656 -3.757812 4.242188 -3.851562 3.859375 -3.9375 C 3.492188 -4.019531 3.125 -4.113281 2.75 -4.21875 C 2.382812 -4.320312 2.046875 -4.460938 1.734375 -4.640625 C 1.421875 -4.816406 1.171875 -5.054688 0.984375 -5.359375 C 0.796875 -5.671875 0.703125 -6.0625 0.703125 -6.53125 C 0.703125 -7.113281 0.84375 -7.597656 1.125 -7.984375 C 1.40625 -8.378906 1.785156 -8.675781 2.265625 -8.875 C 2.742188 -9.070312 3.285156 -9.171875 3.890625 -9.171875 C 4.472656 -9.171875 5.019531 -9.066406 5.53125 -8.859375 C 6.050781 -8.660156 6.488281 -8.351562 6.84375 -7.9375 C 7.195312 -7.519531 7.421875 -6.984375 7.515625 -6.328125 L 5.78125 -6.328125 C 5.664062 -6.804688 5.429688 -7.15625 5.078125 -7.375 C 4.734375 -7.601562 4.328125 -7.71875 3.859375 -7.71875 C 3.429688 -7.71875 3.078125 -7.628906 2.796875 -7.453125 C 2.523438 -7.273438 2.390625 -7.015625 2.390625 -6.671875 C 2.390625 -6.398438 2.488281 -6.179688 2.6875 -6.015625 C 2.882812 -5.859375 3.140625 -5.734375 3.453125 -5.640625 C 3.765625 -5.554688 4.101562 -5.472656 4.46875 -5.390625 C 4.84375 -5.304688 5.21875 -5.207031 5.59375 -5.09375 C 5.976562 -4.976562 6.332031 -4.820312 6.65625 -4.625 C 6.988281 -4.4375 7.253906 -4.179688 7.453125 -3.859375 C 7.648438 -3.535156 7.75 -3.117188 7.75 -2.609375 C 7.75 -1.753906 7.453125 -1.078125 6.859375 -0.578125 C 6.273438 -0.078125 5.445312 0.171875 4.375 0.171875 Z M 4.375 0.171875 "/></g></g><g style="fill:#92d400;fill-opacity:1;"><g transform="translate(50.711227, 251.548845)"><path style="stroke:none" d="M 2.5 0 L 0.796875 0 L 0.796875 -9.015625 L 3.609375 -9.015625 L 5.484375 -2.0625 L 7.328125 -9.015625 L 10.171875 -9.015625 L 10.171875 0 L 8.46875 0 L 8.46875 -7.734375 L 6.3125 0 L 4.65625 0 L 2.5 -7.6875 Z M 2.5 0 "/></g></g><g style="fill:#92d400;fill-opacity:1;"><g transform="translate(64.440277, 251.548845)"><path style="stroke:none" d="M 1.859375 0 L 0.078125 0 L 3.265625 -9.015625 L 5.125 -9.015625 L 8.296875 0 L 6.515625 0 L 5.90625 -1.859375 L 2.46875 -1.859375 Z M 4.1875 -7.15625 L 2.953125 -3.34375 L 5.4375 -3.34375 Z M 4.1875 -7.15625 "/></g></g><g style="fill:#92d400;fill-opacity:1;"><g transform="translate(75.582068, 251.548845)"><path style="stroke:none" d="M 6.125 -3.90625 L 7.75 0 L 5.9375 0 L 4.515625 -3.609375 L 2.5 -3.609375 L 2.5 0 L 0.796875 0 L 0.796875 -9.015625 L 4.6875 -9.015625 C 5.257812 -9.015625 5.757812 -8.921875 6.1875 -8.734375 C 6.613281 -8.546875 6.945312 -8.253906 7.1875 -7.859375 C 7.425781 -7.472656 7.546875 -6.972656 7.546875 -6.359375 C 7.546875 -5.765625 7.421875 -5.257812 7.171875 -4.84375 C 6.921875 -4.425781 6.570312 -4.113281 6.125 -3.90625 Z M 4.453125 -7.484375 L 2.5 -7.484375 L 2.5 -5.09375 L 4.453125 -5.09375 C 4.910156 -5.09375 5.257812 -5.191406 5.5 -5.390625 C 5.738281 -5.597656 5.859375 -5.898438 5.859375 -6.296875 C 5.859375 -6.679688 5.734375 -6.972656 5.484375 -7.171875 C 5.242188 -7.378906 4.898438 -7.484375 4.453125 -7.484375 Z M 4.453125 -7.484375 "/></g></g><g style="fill:#92d400;fill-opacity:1;"><g transform="translate(86.475751, 251.548845)"><path style="stroke:none" d="M 4.578125 0 L 2.875 0 L 2.875 -7.484375 L 0.125 -7.484375 L 0.125 -9.015625 L 7.3125 -9.015625 L 7.3125 -7.484375 L 4.578125 -7.484375 Z M 4.578125 0 "/></g></g><g style="fill:#92d400;fill-opacity:1;"><g transform="translate(96.672412, 251.548845)"><path style="stroke:none" d=""/></g></g><g style="fill:#92d400;fill-opacity:1;"><g transform="translate(102.592393, 251.548845)"><path style="stroke:none" d="M 6.125 -3.90625 L 7.75 0 L 5.9375 0 L 4.515625 -3.609375 L 2.5 -3.609375 L 2.5 0 L 0.796875 0 L 0.796875 -9.015625 L 4.6875 -9.015625 C 5.257812 -9.015625 5.757812 -8.921875 6.1875 -8.734375 C 6.613281 -8.546875 6.945312 -8.253906 7.1875 -7.859375 C 7.425781 -7.472656 7.546875 -6.972656 7.546875 -6.359375 C 7.546875 -5.765625 7.421875 -5.257812 7.171875 -4.84375 C 6.921875 -4.425781 6.570312 -4.113281 6.125 -3.90625 Z M 4.453125 -7.484375 L 2.5 -7.484375 L 2.5 -5.09375 L 4.453125 -5.09375 C 4.910156 -5.09375 5.257812 -5.191406 5.5 -5.390625 C 5.738281 -5.597656 5.859375 -5.898438 5.859375 -6.296875 C 5.859375 -6.679688 5.734375 -6.972656 5.484375 -7.171875 C 5.242188 -7.378906 4.898438 -7.484375 4.453125 -7.484375 Z M 4.453125 -7.484375 "/></g></g><g style="fill:#92d400;fill-opacity:1;"><g transform="translate(113.486084, 251.548845)"><path style="stroke:none" d="M 6.8125 0 L 0.796875 0 L 0.796875 -9.015625 L 6.8125 -9.015625 L 6.8125 -7.484375 L 2.5 -7.484375 L 2.5 -5.265625 L 6.359375 -5.265625 L 6.359375 -3.75 L 2.5 -3.75 L 2.5 -1.53125 L 6.8125 -1.53125 Z M 6.8125 0 "/></g></g><g style="fill:#92d400;fill-opacity:1;"><g transform="translate(123.576425, 251.548845)"><path style="stroke:none" d="M 4.828125 0.171875 C 4.078125 0.171875 3.425781 0.046875 2.875 -0.203125 C 2.332031 -0.460938 1.882812 -0.804688 1.53125 -1.234375 C 1.175781 -1.671875 0.90625 -2.171875 0.71875 -2.734375 C 0.539062 -3.296875 0.453125 -3.890625 0.453125 -4.515625 C 0.453125 -5.140625 0.539062 -5.734375 0.71875 -6.296875 C 0.90625 -6.859375 1.175781 -7.351562 1.53125 -7.78125 C 1.882812 -8.21875 2.332031 -8.554688 2.875 -8.796875 C 3.425781 -9.046875 4.078125 -9.171875 4.828125 -9.171875 C 5.566406 -9.171875 6.207031 -9.046875 6.75 -8.796875 C 7.300781 -8.546875 7.738281 -8.195312 8.0625 -7.75 C 8.382812 -7.300781 8.582031 -6.78125 8.65625 -6.1875 L 6.796875 -6.1875 C 6.722656 -6.664062 6.503906 -7.03125 6.140625 -7.28125 C 5.773438 -7.53125 5.320312 -7.65625 4.78125 -7.65625 C 4.226562 -7.65625 3.765625 -7.519531 3.390625 -7.25 C 3.015625 -6.988281 2.726562 -6.625 2.53125 -6.15625 C 2.332031 -5.6875 2.234375 -5.140625 2.234375 -4.515625 C 2.234375 -3.890625 2.332031 -3.335938 2.53125 -2.859375 C 2.726562 -2.390625 3.015625 -2.019531 3.390625 -1.75 C 3.765625 -1.488281 4.226562 -1.359375 4.78125 -1.359375 C 5.320312 -1.359375 5.769531 -1.488281 6.125 -1.75 C 6.488281 -2.007812 6.710938 -2.398438 6.796875 -2.921875 L 8.65625 -2.921875 C 8.582031 -2.304688 8.382812 -1.765625 8.0625 -1.296875 C 7.738281 -0.835938 7.300781 -0.476562 6.75 -0.21875 C 6.207031 0.0390625 5.566406 0.171875 4.828125 0.171875 Z M 4.828125 0.171875 "/></g></g><g style="fill:#92d400;fill-opacity:1;"><g transform="translate(135.391605, 251.548845)"><path style="stroke:none" d="M 5.03125 0 L 3.25 0 L 3.25 -3.53125 L -0.03125 -9.015625 L 1.953125 -9.015625 L 4.140625 -5.1875 L 6.328125 -9.015625 L 8.296875 -9.015625 L 5.03125 -3.53125 Z M 5.03125 0 "/></g></g><g style="fill:#92d400;fill-opacity:1;"><g transform="translate(146.415258, 251.548845)"><path style="stroke:none" d="M 4.828125 0.171875 C 4.078125 0.171875 3.425781 0.046875 2.875 -0.203125 C 2.332031 -0.460938 1.882812 -0.804688 1.53125 -1.234375 C 1.175781 -1.671875 0.90625 -2.171875 0.71875 -2.734375 C 0.539062 -3.296875 0.453125 -3.890625 0.453125 -4.515625 C 0.453125 -5.140625 0.539062 -5.734375 0.71875 -6.296875 C 0.90625 -6.859375 1.175781 -7.351562 1.53125 -7.78125 C 1.882812 -8.21875 2.332031 -8.554688 2.875 -8.796875 C 3.425781 -9.046875 4.078125 -9.171875 4.828125 -9.171875 C 5.566406 -9.171875 6.207031 -9.046875 6.75 -8.796875 C 7.300781 -8.546875 7.738281 -8.195312 8.0625 -7.75 C 8.382812 -7.300781 8.582031 -6.78125 8.65625 -6.1875 L 6.796875 -6.1875 C 6.722656 -6.664062 6.503906 -7.03125 6.140625 -7.28125 C 5.773438 -7.53125 5.320312 -7.65625 4.78125 -7.65625 C 4.226562 -7.65625 3.765625 -7.519531 3.390625 -7.25 C 3.015625 -6.988281 2.726562 -6.625 2.53125 -6.15625 C 2.332031 -5.6875 2.234375 -5.140625 2.234375 -4.515625 C 2.234375 -3.890625 2.332031 -3.335938 2.53125 -2.859375 C 2.726562 -2.390625 3.015625 -2.019531 3.390625 -1.75 C 3.765625 -1.488281 4.226562 -1.359375 4.78125 -1.359375 C 5.320312 -1.359375 5.769531 -1.488281 6.125 -1.75 C 6.488281 -2.007812 6.710938 -2.398438 6.796875 -2.921875 L 8.65625 -2.921875 C 8.582031 -2.304688 8.382812 -1.765625 8.0625 -1.296875 C 7.738281 -0.835938 7.300781 -0.476562 6.75 -0.21875 C 6.207031 0.0390625 5.566406 0.171875 4.828125 0.171875 Z M 4.828125 0.171875 "/></g></g><g style="fill:#92d400;fill-opacity:1;"><g transform="translate(158.230438, 251.548845)"><path style="stroke:none" d="M 6.3125 0 L 0.796875 0 L 0.796875 -9.015625 L 2.5 -9.015625 L 2.5 -1.53125 L 6.3125 -1.53125 Z M 6.3125 0 "/></g></g><g style="fill:#92d400;fill-opacity:1;"><g transform="translate(167.434739, 251.548845)"><path style="stroke:none" d="M 2.5 0 L 0.796875 0 L 0.796875 -9.015625 L 2.5 -9.015625 Z M 2.5 0 "/></g></g><g style="fill:#92d400;fill-opacity:1;"><g transform="translate(173.496467, 251.548845)"><path style="stroke:none" d="M 2.5 0 L 0.796875 0 L 0.796875 -9.015625 L 2.71875 -9.015625 L 6.421875 -2.5625 L 6.421875 -9.015625 L 8.109375 -9.015625 L 8.109375 0 L 6.1875 0 L 2.5 -6.46875 Z M 2.5 0 "/></g></g><g style="fill:#92d400;fill-opacity:1;"><g transform="translate(185.169893, 251.548845)"><path style="stroke:none" d="M 4.859375 0.171875 C 4.097656 0.171875 3.441406 0.046875 2.890625 -0.203125 C 2.335938 -0.460938 1.878906 -0.8125 1.515625 -1.25 C 1.160156 -1.6875 0.894531 -2.1875 0.71875 -2.75 C 0.539062 -3.3125 0.453125 -3.898438 0.453125 -4.515625 C 0.453125 -5.128906 0.539062 -5.710938 0.71875 -6.265625 C 0.894531 -6.828125 1.160156 -7.328125 1.515625 -7.765625 C 1.878906 -8.203125 2.335938 -8.546875 2.890625 -8.796875 C 3.441406 -9.046875 4.097656 -9.171875 4.859375 -9.171875 C 6.023438 -9.171875 6.953125 -8.894531 7.640625 -8.34375 C 8.328125 -7.800781 8.757812 -7.082031 8.9375 -6.1875 L 7.078125 -6.1875 C 6.921875 -6.65625 6.65625 -7.015625 6.28125 -7.265625 C 5.914062 -7.523438 5.4375 -7.65625 4.84375 -7.65625 C 4.269531 -7.65625 3.789062 -7.515625 3.40625 -7.234375 C 3.019531 -6.960938 2.726562 -6.585938 2.53125 -6.109375 C 2.332031 -5.640625 2.234375 -5.113281 2.234375 -4.53125 C 2.234375 -3.914062 2.332031 -3.367188 2.53125 -2.890625 C 2.738281 -2.421875 3.046875 -2.046875 3.453125 -1.765625 C 3.867188 -1.492188 4.382812 -1.359375 5 -1.359375 C 5.707031 -1.359375 6.269531 -1.535156 6.6875 -1.890625 C 7.101562 -2.253906 7.316406 -2.789062 7.328125 -3.5 L 5.34375 -3.5 L 5.34375 -4.90625 L 9.03125 -4.90625 L 9.03125 0 L 7.484375 0 L 7.484375 -1.015625 C 7.160156 -0.566406 6.757812 -0.253906 6.28125 -0.078125 C 5.8125 0.0859375 5.335938 0.171875 4.859375 0.171875 Z M 4.859375 0.171875 "/></g></g><g style="fill:#92d400;fill-opacity:1;"><g transform="translate(197.599399, 251.548845)"><path style="stroke:none" d="M 0.5625 2.015625 L 0.5625 1.1875 C 1.34375 1.144531 1.773438 0.8125 1.859375 0.1875 C 1.867188 0.0820312 1.867188 -0.0234375 1.859375 -0.140625 C 1.742188 0.0351562 1.550781 0.125 1.28125 0.125 C 1.09375 0.125 0.914062 0.046875 0.75 -0.109375 C 0.582031 -0.273438 0.5 -0.5 0.5 -0.78125 C 0.5 -1.070312 0.585938 -1.304688 0.765625 -1.484375 C 0.953125 -1.671875 1.207031 -1.765625 1.53125 -1.765625 C 1.914062 -1.765625 2.210938 -1.613281 2.421875 -1.3125 C 2.628906 -1.019531 2.734375 -0.644531 2.734375 -0.1875 C 2.734375 0.144531 2.664062 0.472656 2.53125 0.796875 C 2.394531 1.117188 2.164062 1.390625 1.84375 1.609375 C 1.53125 1.835938 1.101562 1.972656 0.5625 2.015625 Z M 0.5625 2.015625 "/></g></g><g style="fill:#92d400;fill-opacity:1;"><g transform="translate(203.590274, 251.548845)"><path style="stroke:none" d=""/></g></g><g style="fill:#92d400;fill-opacity:1;"><g transform="translate(209.510248, 251.548845)"><path style="stroke:none" d="M 6.125 -3.90625 L 7.75 0 L 5.9375 0 L 4.515625 -3.609375 L 2.5 -3.609375 L 2.5 0 L 0.796875 0 L 0.796875 -9.015625 L 4.6875 -9.015625 C 5.257812 -9.015625 5.757812 -8.921875 6.1875 -8.734375 C 6.613281 -8.546875 6.945312 -8.253906 7.1875 -7.859375 C 7.425781 -7.472656 7.546875 -6.972656 7.546875 -6.359375 C 7.546875 -5.765625 7.421875 -5.257812 7.171875 -4.84375 C 6.921875 -4.425781 6.570312 -4.113281 6.125 -3.90625 Z M 4.453125 -7.484375 L 2.5 -7.484375 L 2.5 -5.09375 L 4.453125 -5.09375 C 4.910156 -5.09375 5.257812 -5.191406 5.5 -5.390625 C 5.738281 -5.597656 5.859375 -5.898438 5.859375 -6.296875 C 5.859375 -6.679688 5.734375 -6.972656 5.484375 -7.171875 C 5.242188 -7.378906 4.898438 -7.484375 4.453125 -7.484375 Z M 4.453125 -7.484375 "/></g></g><g style="fill:#92d400;fill-opacity:1;"><g transform="translate(220.403924, 251.548845)"><path style="stroke:none" d="M 6.8125 0 L 0.796875 0 L 0.796875 -9.015625 L 6.8125 -9.015625 L 6.8125 -7.484375 L 2.5 -7.484375 L 2.5 -5.265625 L 6.359375 -5.265625 L 6.359375 -3.75 L 2.5 -3.75 L 2.5 -1.53125 L 6.8125 -1.53125 Z M 6.8125 0 "/></g></g><g style="fill:#92d400;fill-opacity:1;"><g transform="translate(230.494265, 251.548845)"><path style="stroke:none" d="M 1.859375 0 L 0.078125 0 L 3.265625 -9.015625 L 5.125 -9.015625 L 8.296875 0 L 6.515625 0 L 5.90625 -1.859375 L 2.46875 -1.859375 Z M 4.1875 -7.15625 L 2.953125 -3.34375 L 5.4375 -3.34375 Z M 4.1875 -7.15625 "/></g></g><g style="fill:#92d400;fill-opacity:1;"><g transform="translate(241.636058, 251.548845)"><path style="stroke:none" d="M 6.3125 0 L 0.796875 0 L 0.796875 -9.015625 L 2.5 -9.015625 L 2.5 -1.53125 L 6.3125 -1.53125 Z M 6.3125 0 "/></g></g><g style="fill:#92d400;fill-opacity:1;"><g transform="translate(250.840328, 251.548845)"><path style="stroke:none" d=""/></g></g><g style="fill:#92d400;fill-opacity:1;"><g transform="translate(256.760319, 251.548845)"><path style="stroke:none" d="M 6.125 -3.90625 L 7.75 0 L 5.9375 0 L 4.515625 -3.609375 L 2.5 -3.609375 L 2.5 0 L 0.796875 0 L 0.796875 -9.015625 L 4.6875 -9.015625 C 5.257812 -9.015625 5.757812 -8.921875 6.1875 -8.734375 C 6.613281 -8.546875 6.945312 -8.253906 7.1875 -7.859375 C 7.425781 -7.472656 7.546875 -6.972656 7.546875 -6.359375 C 7.546875 -5.765625 7.421875 -5.257812 7.171875 -4.84375 C 6.921875 -4.425781 6.570312 -4.113281 6.125 -3.90625 Z M 4.453125 -7.484375 L 2.5 -7.484375 L 2.5 -5.09375 L 4.453125 -5.09375 C 4.910156 -5.09375 5.257812 -5.191406 5.5 -5.390625 C 5.738281 -5.597656 5.859375 -5.898438 5.859375 -6.296875 C 5.859375 -6.679688 5.734375 -6.972656 5.484375 -7.171875 C 5.242188 -7.378906 4.898438 -7.484375 4.453125 -7.484375 Z M 4.453125 -7.484375 "/></g></g><g style="fill:#92d400;fill-opacity:1;"><g transform="translate(267.65401, 251.548845)"><path style="stroke:none" d="M 6.8125 0 L 0.796875 0 L 0.796875 -9.015625 L 6.8125 -9.015625 L 6.8125 -7.484375 L 2.5 -7.484375 L 2.5 -5.265625 L 6.359375 -5.265625 L 6.359375 -3.75 L 2.5 -3.75 L 2.5 -1.53125 L 6.8125 -1.53125 Z M 6.8125 0 "/></g></g><g style="fill:#92d400;fill-opacity:1;"><g transform="translate(277.744351, 251.548845)"><path style="stroke:none" d="M 5.078125 0 L 2.53125 0 L 0.171875 -9.015625 L 1.953125 -9.015625 L 3.8125 -1.53125 L 5.5 -9.015625 L 7.65625 -9.015625 L 9.328125 -1.53125 L 11.1875 -9.015625 L 12.96875 -9.015625 L 10.609375 0 L 8.0625 0 L 6.5625 -6.984375 Z M 5.078125 0 "/></g></g><g style="fill:#92d400;fill-opacity:1;"><g transform="translate(293.635386, 251.548845)"><path style="stroke:none" d="M 1.859375 0 L 0.078125 0 L 3.265625 -9.015625 L 5.125 -9.015625 L 8.296875 0 L 6.515625 0 L 5.90625 -1.859375 L 2.46875 -1.859375 Z M 4.1875 -7.15625 L 2.953125 -3.34375 L 5.4375 -3.34375 Z M 4.1875 -7.15625 "/></g></g><g style="fill:#92d400;fill-opacity:1;"><g transform="translate(304.777162, 251.548845)"><path style="stroke:none" d="M 6.125 -3.90625 L 7.75 0 L 5.9375 0 L 4.515625 -3.609375 L 2.5 -3.609375 L 2.5 0 L 0.796875 0 L 0.796875 -9.015625 L 4.6875 -9.015625 C 5.257812 -9.015625 5.757812 -8.921875 6.1875 -8.734375 C 6.613281 -8.546875 6.945312 -8.253906 7.1875 -7.859375 C 7.425781 -7.472656 7.546875 -6.972656 7.546875 -6.359375 C 7.546875 -5.765625 7.421875 -5.257812 7.171875 -4.84375 C 6.921875 -4.425781 6.570312 -4.113281 6.125 -3.90625 Z M 4.453125 -7.484375 L 2.5 -7.484375 L 2.5 -5.09375 L 4.453125 -5.09375 C 4.910156 -5.09375 5.257812 -5.191406 5.5 -5.390625 C 5.738281 -5.597656 5.859375 -5.898438 5.859375 -6.296875 C 5.859375 -6.679688 5.734375 -6.972656 5.484375 -7.171875 C 5.242188 -7.378906 4.898438 -7.484375 4.453125 -7.484375 Z M 4.453125 -7.484375 "/></g></g><g style="fill:#92d400;fill-opacity:1;"><g transform="translate(315.670852, 251.548845)"><path style="stroke:none" d="M 3.421875 0 L 0.796875 0 L 0.796875 -9.015625 L 3.421875 -9.015625 C 4.953125 -9.015625 6.117188 -8.625 6.921875 -7.84375 C 7.734375 -7.0625 8.140625 -5.945312 8.140625 -4.5 C 8.140625 -3.0625 7.734375 -1.953125 6.921875 -1.171875 C 6.109375 -0.390625 4.941406 0 3.421875 0 Z M 2.5 -7.484375 L 2.5 -1.53125 L 3.40625 -1.53125 C 4 -1.53125 4.523438 -1.617188 4.984375 -1.796875 C 5.441406 -1.984375 5.796875 -2.296875 6.046875 -2.734375 C 6.304688 -3.171875 6.4375 -3.757812 6.4375 -4.5 C 6.4375 -5.195312 6.3125 -5.765625 6.0625 -6.203125 C 5.8125 -6.640625 5.457031 -6.960938 5 -7.171875 C 4.550781 -7.378906 4.019531 -7.484375 3.40625 -7.484375 Z M 2.5 -7.484375 "/></g></g><g style="fill:#92d400;fill-opacity:1;"><g transform="translate(327.025295, 251.548845)"><path style="stroke:none" d="M 4.375 0.171875 C 3.945312 0.171875 3.507812 0.113281 3.0625 0 C 2.613281 -0.101562 2.203125 -0.269531 1.828125 -0.5 C 1.453125 -0.738281 1.132812 -1.054688 0.875 -1.453125 C 0.625 -1.859375 0.46875 -2.347656 0.40625 -2.921875 L 2.171875 -2.921875 C 2.273438 -2.503906 2.441406 -2.175781 2.671875 -1.9375 C 2.898438 -1.695312 3.164062 -1.523438 3.46875 -1.421875 C 3.769531 -1.328125 4.078125 -1.28125 4.390625 -1.28125 C 4.859375 -1.28125 5.25 -1.378906 5.5625 -1.578125 C 5.875 -1.773438 6.03125 -2.09375 6.03125 -2.53125 C 6.03125 -2.84375 5.925781 -3.082031 5.71875 -3.25 C 5.519531 -3.425781 5.253906 -3.5625 4.921875 -3.65625 C 4.597656 -3.757812 4.242188 -3.851562 3.859375 -3.9375 C 3.492188 -4.019531 3.125 -4.113281 2.75 -4.21875 C 2.382812 -4.320312 2.046875 -4.460938 1.734375 -4.640625 C 1.421875 -4.816406 1.171875 -5.054688 0.984375 -5.359375 C 0.796875 -5.671875 0.703125 -6.0625 0.703125 -6.53125 C 0.703125 -7.113281 0.84375 -7.597656 1.125 -7.984375 C 1.40625 -8.378906 1.785156 -8.675781 2.265625 -8.875 C 2.742188 -9.070312 3.285156 -9.171875 3.890625 -9.171875 C 4.472656 -9.171875 5.019531 -9.066406 5.53125 -8.859375 C 6.050781 -8.660156 6.488281 -8.351562 6.84375 -7.9375 C 7.195312 -7.519531 7.421875 -6.984375 7.515625 -6.328125 L 5.78125 -6.328125 C 5.664062 -6.804688 5.429688 -7.15625 5.078125 -7.375 C 4.734375 -7.601562 4.328125 -7.71875 3.859375 -7.71875 C 3.429688 -7.71875 3.078125 -7.628906 2.796875 -7.453125 C 2.523438 -7.273438 2.390625 -7.015625 2.390625 -6.671875 C 2.390625 -6.398438 2.488281 -6.179688 2.6875 -6.015625 C 2.882812 -5.859375 3.140625 -5.734375 3.453125 -5.640625 C 3.765625 -5.554688 4.101562 -5.472656 4.46875 -5.390625 C 4.84375 -5.304688 5.21875 -5.207031 5.59375 -5.09375 C 5.976562 -4.976562 6.332031 -4.820312 6.65625 -4.625 C 6.988281 -4.4375 7.253906 -4.179688 7.453125 -3.859375 C 7.648438 -3.535156 7.75 -3.117188 7.75 -2.609375 C 7.75 -1.753906 7.453125 -1.078125 6.859375 -0.578125 C 6.273438 -0.078125 5.445312 0.171875 4.375 0.171875 Z M 4.375 0.171875 "/></g></g><path style=" stroke:none;fill-rule:evenodd;fill:#0170bf;fill-opacity:1;" d="M 148.796875 181.367188 C 148.4375 183.324219 147.003906 184.570312 146.601562 185.21875 C 147.234375 185.757812 148.089844 186.324219 149.164062 186.664062 C 151.335938 187.347656 152.269531 186.382812 152.160156 187.726562 C 150.6875 188.832031 145.644531 188.171875 143.261719 186.78125 C 143.207031 184.789062 141.660156 183.121094 139.417969 183.644531 C 138.566406 183.84375 137.988281 183.265625 137.367188 182.445312 C 136.871094 181.796875 136.429688 180.761719 136.523438 179.710938 C 140.183594 179.710938 141.421875 177.738281 143.441406 179.46875 C 144.324219 180.226562 144.039062 180.96875 145.417969 181.726562 C 146.40625 182.269531 147.433594 182.140625 148.386719 181.582031 C 148.722656 181.386719 148.46875 181.507812 148.796875 181.367188 Z M 148.796875 181.367188 "/><path style=" stroke:none;fill-rule:evenodd;fill:#8a5293;fill-opacity:1;" d="M 164.707031 171.675781 C 162.25 172.273438 161.632812 174.4375 162.460938 176.019531 C 162.769531 176.609375 162.757812 176.640625 162.410156 177.292969 C 161.808594 178.40625 160.6875 179.601562 159.277344 179.703125 C 158.90625 179 158.980469 178.242188 157.925781 176.605469 C 157.605469 176.105469 157.320312 175.835938 157.171875 175.183594 C 156.605469 172.695312 158.816406 172.460938 159.25 170.703125 C 159.414062 170.042969 159.332031 169.308594 159.074219 168.773438 C 158.648438 167.886719 158.304688 167.8125 158.089844 167.527344 C 158.9375 167.507812 159.726562 167.703125 160.46875 167.933594 C 161.125 168.140625 161.964844 168.707031 162.453125 168.777344 C 162.824219 167.84375 163.136719 167.363281 163.269531 166.144531 C 163.378906 165.105469 162.898438 163.570312 163.0625 163.015625 L 163.792969 162.90625 C 165.128906 165.070312 165.546875 168.890625 164.707031 171.675781 Z M 164.707031 171.675781 "/><path style=" stroke:none;fill-rule:evenodd;fill:#b4d621;fill-opacity:1;" d="M 141.535156 157.804688 C 141.570312 158.757812 141.105469 159.351562 141.441406 161.609375 C 142.167969 166.507812 135.6875 163.4375 137.222656 169.261719 C 135.789062 168.914062 134.292969 166.65625 133.914062 166.351562 C 130.117188 169.070312 131.917969 172.019531 130.128906 171.023438 C 129.847656 168.960938 130.792969 166.148438 131.851562 164.480469 C 132.214844 163.902344 132.714844 163.3125 132.976562 162.796875 C 134.359375 162.871094 134.898438 162.984375 135.84375 162.273438 C 137.804688 160.808594 136.410156 159.585938 137.53125 158.753906 C 138.761719 157.839844 139.945312 157.496094 141.535156 157.804688 Z M 141.535156 157.804688 "/><path style=" stroke:none;fill-rule:evenodd;fill:#fff212;fill-opacity:1;" d="M 154.199219 157.832031 C 150.585938 159.765625 150.929688 161.328125 148.566406 161.117188 C 147.136719 160.988281 145.773438 158.863281 143.535156 160.367188 C 142.785156 160.871094 142.957031 161.019531 142.441406 161.5625 C 141.84375 160.609375 142.433594 158.234375 142.695312 157.300781 C 141.769531 156.660156 139.566406 156.910156 138.253906 157.417969 C 137.757812 157.609375 137.503906 157.910156 136.867188 157.859375 C 136.308594 157.140625 137.109375 156.75 137.722656 156.351562 C 138.316406 155.964844 138.972656 155.609375 139.726562 155.300781 C 141.210938 154.695312 143.035156 154.265625 144.953125 154.382812 C 145.5625 155.132812 145.867188 155.714844 146.855469 156.089844 C 147.957031 156.507812 149.039062 156.1875 149.761719 155.609375 C 150.574219 154.957031 151.542969 155.324219 152.511719 155.925781 C 153.148438 156.316406 153.945312 157.109375 154.199219 157.832031 Z M 154.199219 157.832031 "/><path style=" stroke:none;fill-rule:evenodd;fill:#d92a34;fill-opacity:1;" d="M 162.082031 167.574219 C 160.894531 167.246094 160.285156 166.789062 158.726562 166.644531 C 157.207031 166.503906 156.398438 166.167969 155.863281 165.144531 C 155.21875 163.90625 155.800781 163.0625 154.828125 161.839844 C 153.804688 160.554688 152.421875 160.871094 151.664062 160.855469 C 152.03125 160.582031 152.890625 159.476562 154.234375 158.835938 C 154.578125 158.675781 155.058594 158.539062 155.339844 158.3125 C 155.019531 157.269531 154.132812 156.296875 153.527344 155.78125 C 153.0625 155.386719 152.851562 155.203125 152.234375 154.902344 C 151.519531 154.554688 151.109375 154.617188 151.363281 153.726562 C 153.148438 153.265625 157.082031 155.867188 158.652344 157.742188 C 159.003906 158.160156 159.089844 158.222656 158.859375 158.867188 C 158.113281 160.945312 159.605469 162.480469 161.171875 162.808594 C 162.019531 162.988281 162.292969 163.777344 162.476562 164.769531 C 162.671875 165.804688 162.460938 166.757812 162.082031 167.574219 Z M 162.082031 167.574219 "/><path style=" stroke:none;fill-rule:evenodd;fill:#01b1a4;fill-opacity:1;" d="M 140.03125 178.082031 C 139.125 178.738281 137.050781 178.808594 135.691406 178.757812 C 135.464844 180.371094 136.167969 182.3125 137.132812 183.4375 C 137.480469 183.839844 137.933594 184.152344 137.191406 184.597656 C 136.417969 184.78125 134.574219 182.242188 134.097656 181.582031 C 133.042969 180.117188 132.871094 179.082031 132.328125 177.242188 C 132.839844 176.644531 133.527344 176.261719 133.625 174.957031 C 133.714844 173.765625 133.179688 172.867188 132.570312 172.386719 C 132.066406 171.988281 131.949219 172.15625 131.929688 171.28125 C 131.894531 169.855469 132.65625 168.125 133.695312 167.609375 C 134.316406 168.066406 134.445312 168.640625 136.054688 169.695312 C 137.066406 170.355469 137.902344 170.585938 138.164062 172.046875 C 138.46875 173.765625 136.519531 175.304688 138.570312 177.261719 C 139.164062 177.832031 139.433594 177.730469 140.03125 178.082031 Z M 140.03125 178.082031 "/><path style=" stroke:none;fill-rule:evenodd;fill:#7a75b5;fill-opacity:1;" d="M 158.460938 180.726562 C 160 180.757812 161.855469 179.410156 162.664062 178.402344 C 162.914062 178.089844 162.941406 177.796875 163.332031 177.746094 C 165.316406 177.492188 161.863281 181.484375 161.035156 182.199219 C 160.386719 182.757812 158.757812 184.078125 157.636719 184.289062 C 156.828125 183.832031 156.136719 183.320312 154.839844 183.636719 C 152.453125 184.222656 153.363281 185.660156 152 186.015625 C 151.480469 186.152344 150.984375 186.203125 150.429688 186.164062 C 149.140625 186.074219 148.738281 185.652344 147.882812 185.238281 C 148.132812 184.628906 148.816406 184.117188 149.453125 182.414062 C 149.984375 181.011719 150.042969 180.402344 151.335938 179.84375 C 153.066406 179.09375 156.097656 181.222656 156.8125 176.617188 C 157.589844 178.109375 157.996094 177.882812 158.460938 180.726562 Z M 158.460938 180.726562 "/><g clip-rule="nonzero" clip-path="url(#1917968d4b)"><path style=" stroke:none;fill-rule:evenodd;fill:#7a75b5;fill-opacity:1;" d="M 156.300781 184.214844 C 159.652344 185.230469 157.949219 189.984375 154.828125 188.972656 C 151.753906 187.976562 153.066406 183.238281 156.300781 184.214844 Z M 156.300781 184.214844 "/></g><g clip-rule="nonzero" clip-path="url(#648ff88e2e)"><path style=" stroke:none;fill-rule:evenodd;fill:#0170bf;fill-opacity:1;" d="M 140.886719 184.21875 C 144.113281 185.191406 142.675781 189.917969 139.410156 188.976562 C 136.332031 188.089844 137.621094 183.230469 140.886719 184.21875 Z M 140.886719 184.21875 "/></g><path style=" stroke:none;fill-rule:evenodd;fill:#01b1a4;fill-opacity:1;" d="M 131.316406 172.308594 C 132.46875 172.636719 133.519531 173.953125 132.949219 175.515625 C 132.566406 176.566406 131.363281 177.527344 129.800781 177.066406 C 126.796875 176.183594 127.902344 171.332031 131.316406 172.308594 Z M 131.316406 172.308594 "/><g clip-rule="nonzero" clip-path="url(#d067e80117)"><path style=" stroke:none;fill-rule:evenodd;fill:#fff212;fill-opacity:1;" d="M 148.292969 150.773438 C 151.5 151.277344 150.871094 156.160156 147.488281 155.699219 C 144.226562 155.253906 144.945312 150.246094 148.292969 150.773438 Z M 148.292969 150.773438 "/></g><path style=" stroke:none;fill-rule:evenodd;fill:#b4d621;fill-opacity:1;" d="M 134.472656 157.394531 C 135.679688 157.625 136.746094 158.808594 136.476562 160.308594 C 136.253906 161.550781 135.046875 162.566406 133.492188 162.289062 C 130.359375 161.722656 131.050781 156.746094 134.472656 157.394531 Z M 134.472656 157.394531 "/><path style=" stroke:none;fill-rule:evenodd;fill:#d92a34;fill-opacity:1;" d="M 162.320312 157.410156 C 165.625 158.195312 164.429688 163.015625 161.171875 162.265625 C 160.054688 162.007812 158.929688 160.753906 159.320312 159.214844 C 159.613281 158.058594 160.8125 157.054688 162.320312 157.410156 Z M 162.320312 157.410156 "/><path style=" stroke:none;fill-rule:evenodd;fill:#8a5293;fill-opacity:1;" d="M 166.011719 172.363281 C 167.476562 172.855469 168.046875 174.285156 167.578125 175.585938 C 167.203125 176.621094 165.816406 177.542969 164.375 177.035156 C 161.304688 175.953125 162.730469 171.257812 166.011719 172.363281 Z M 166.011719 172.363281 "/></g></svg>